<?xml version="1.0" encoding="UTF-8"?> <svg xmlns="http://www.w3.org/2000/svg" width="844" height="298" viewBox="0 0 844 298" fill="none"><path d="M21.0352 242.814C26.5335 242.814 31.5435 242.633 36.5242 242.934C37.9096 243.018 40.2964 244.436 40.3812 245.403C41.3767 256.753 49.6216 260.479 58.7679 262.019C83.7512 266.223 108.873 265.938 133.875 262.006C140.041 261.036 146.503 259.249 149.569 252.732C153.267 244.872 149.563 236.84 140.769 234.396C134.557 232.669 128.112 231.321 121.697 230.872C100.766 229.405 79.7654 228.862 58.8624 227.115C44.1061 225.881 29.4732 223.172 16.6109 214.968C8.28841 209.66 3.47218 202.056 2.16998 192.197C-1.48865 164.496 9.91305 147.187 37.021 139.715C61.5616 132.952 86.643 132.226 111.852 133.542C127.171 134.342 142.309 136.202 156.923 141.394C176.138 148.221 188.104 163.843 188.044 182.728C188.04 183.848 187.807 184.968 187.651 186.342C174.493 186.342 161.55 186.342 148.132 186.342C147.022 171.849 136 169.284 124.561 167.694C103.982 164.834 83.3474 165.168 62.7774 167.825C58.2187 168.413 53.6503 169.781 49.3776 171.51C44.3234 173.555 41.6991 177.739 41.8369 183.344C41.9692 188.726 44.346 193.083 49.6761 194.184C59.7198 196.258 69.8658 198.215 80.0658 199.073C99.6373 200.719 119.336 200.98 138.862 202.988C148.66 203.995 158.612 206.536 167.758 210.215C186.951 217.936 193.12 231.975 190.858 253.898C188.756 274.257 175.216 284.496 157.219 290.265C141.883 295.18 126.012 297.312 109.991 297.245C93.0259 297.174 75.9935 296.889 59.1228 295.297C43.5206 293.824 28.2807 289.903 15.5783 279.747C4.00943 270.498 -0.119239 257.996 0.00261046 242.814C7.0068 242.814 13.7713 242.814 21.0352 242.814Z" fill="#FE0204"></path><path d="M566.515 295.441C547.492 297.94 528.894 298.209 510.292 295.689C495.028 293.622 480.371 289.732 466.989 281.719C447.687 270.161 436.943 252.853 433.7 231.022C431.334 215.09 431.947 199.096 437.645 183.737C445.529 162.484 461.145 149.048 482.019 141.61C505.458 133.259 529.749 131.872 554.395 133.9C569.915 135.177 584.967 137.993 599.24 144.516C626.139 156.811 639.291 178.436 641.596 207.168C642.962 224.19 640.731 240.808 632.407 256.038C622.704 273.79 607.125 284.32 588.248 290.252C581.298 292.437 574.059 293.704 566.515 295.441ZM472.975 214.592C473.08 238.868 484.428 249.55 503.279 254.551C526.5 260.711 550.059 260.627 573.293 253.832C588.022 249.525 598.058 240.344 600.563 224.664C604.123 202.376 597.028 183.446 572.905 176.383C551.718 170.178 530.224 170.213 508.697 174.481C490.296 178.129 473.585 187.533 472.975 214.592Z" fill="#FE0204"></path><path d="M234.042 136.783C240.372 136.783 246.218 137.04 252.029 136.696C256.174 136.45 257.123 138.117 257.09 141.895C256.944 158.222 257.174 174.553 256.934 190.877C256.867 195.448 258.187 196.934 262.864 196.908C295.353 196.73 327.843 196.714 360.331 196.918C365.342 196.95 366.482 195.17 366.416 190.537C366.184 174.379 366.444 158.214 366.245 142.056C366.194 137.923 367.423 136.573 371.623 136.691C381.779 136.975 391.948 136.867 402.11 136.737C405.442 136.694 406.859 137.657 406.852 141.275C406.761 191.092 406.791 240.909 406.779 290.726C406.779 291.522 406.616 292.318 406.492 293.46C393.228 293.46 380.158 293.46 366.565 293.46C366.485 291.669 366.339 289.897 366.337 288.125C366.319 271.797 366.2 255.468 366.416 239.143C366.469 235.149 365.243 234.027 361.328 234.043C328.339 234.173 295.349 234.176 262.361 234.039C258.325 234.023 256.871 235.029 256.932 239.314C257.168 255.972 256.953 272.636 257.09 289.296C257.118 292.661 256.301 293.992 252.655 293.912C242.163 293.682 231.66 293.678 221.169 293.91C217.301 293.996 216.47 292.573 216.478 288.966C216.584 240.148 216.593 191.331 216.473 142.514C216.462 138.28 217.492 136.319 222.053 136.716C225.856 137.047 229.711 136.783 234.042 136.783Z" fill="#FE0204"></path><path d="M668.489 160.049C668.489 153.552 668.613 147.552 668.44 141.56C668.345 138.254 669.27 136.695 672.912 136.737C711.044 137.179 749.195 136.932 787.302 138.136C804.192 138.669 820.113 144.267 831.569 157.954C843.997 172.801 845.337 190.466 842.308 208.497C837.408 237.666 815.643 249.399 792.941 251.381C767.466 253.605 741.737 252.968 716.117 253.489C707.664 253.661 709.03 253.205 708.986 260.825C708.932 270.32 708.852 279.817 709.038 289.308C709.104 292.692 708.229 293.993 704.593 293.911C694.271 293.68 683.934 293.633 673.614 293.924C669.311 294.046 668.394 292.501 668.407 288.48C668.539 245.837 668.489 203.193 668.489 160.049ZM708.946 200.548C708.946 205.048 709.206 209.567 708.87 214.042C708.562 218.141 710.214 219.189 714.044 219.159C732.543 219.013 751.044 219.132 769.543 219.045C773.701 219.025 777.893 218.816 782.006 218.241C794.097 216.551 801.885 209.432 802.904 199.462C804.291 185.894 799.585 177.55 787.807 173.633C783.91 172.337 779.672 171.507 775.577 171.455C754.747 171.19 733.913 171.309 713.081 171.139C709.706 171.111 708.816 172.373 708.887 175.55C709.066 183.546 708.946 191.548 708.946 200.548Z" fill="#FE0204"></path><path d="M168 42.9577C168 66.708 168 89.8268 168 113.317C158.369 113.317 148.99 113.317 138.919 113.317C138.919 90.2497 138.919 67.0801 138.919 42.4417C120.753 62.0357 103.641 80.4927 85.9323 99.5933C68.5837 80.9028 51.3606 62.3474 33.162 42.741C33.162 67.0847 33.162 90.0605 33.162 113.361C23.1462 113.361 13.7514 113.361 4 113.361C4 75.9446 4 38.6128 4 0.48832C11.4448 0.48832 18.7746 0.232623 26.0637 0.662467C27.9605 0.774318 30.022 2.75233 31.514 4.33615C48.4114 22.2739 65.2164 40.2984 82.0321 58.3127C83.1698 59.5315 84.1949 60.855 85.7025 62.6385C89.2583 58.8555 92.3816 55.5509 95.485 52.2278C110.292 36.3729 125.166 20.5797 139.833 4.59645C142.639 1.53869 145.49 0.148724 149.658 0.386664C155.509 0.7207 161.394 0.471053 168 0.471053C168 14.7198 168 28.523 168 42.9577Z" fill="#5C4977"></path><path d="M237.373 68.6304C231.467 68.6304 226.195 68.6304 220.444 68.6304C220.444 75.5012 220.444 82.0318 220.444 89.2092C250.916 89.2092 281.299 89.2092 312 89.2092C312 97.5216 312 105.202 312 113.361C271.94 113.361 231.653 113.361 191 113.361C191 76.2238 191 39.002 191 1.3606C231.206 1.3606 271.323 1.3606 311.882 1.3606C311.882 9.15166 311.882 16.9968 311.882 25.4978C281.554 25.4978 250.981 25.4978 220.188 25.4978C220.188 32.5789 220.188 39.0112 220.188 46.0501C249.24 46.0501 278.15 46.0501 307.469 46.0501C307.469 53.6773 307.469 60.7137 307.469 68.6304C284.355 68.6304 261.181 68.6304 237.373 68.6304Z" fill="#5C4977"></path><path d="M553.114 43.6551C565.44 66.966 577.514 89.8841 590 113.584C579.808 113.584 570.614 113.676 561.425 113.483C560.092 113.455 558.74 112.133 557.494 111.27C557.024 110.944 556.702 110.26 556.529 109.675C552.242 95.2027 542.49 91.6053 528.055 92.9986C513.041 94.448 497.775 93.4533 482.623 93.2295C478.821 93.1733 476.05 93.8287 474.897 97.7114C470.768 111.621 461.39 116.242 447.496 113.692C443.679 112.991 439.623 113.585 435 113.585C436.071 111.402 436.828 109.749 437.677 108.144C455.811 73.8641 474.017 39.6219 492.007 5.26653C493.937 1.58113 496.036 0.195791 500.221 0.376019C508.835 0.746908 517.489 0.240096 526.098 0.661868C528.242 0.766942 531.193 2.52891 532.221 4.38604C539.331 17.2179 546.03 30.2766 553.114 43.6551ZM499.222 53.3067C496.659 58.0214 494.095 62.7362 491.186 68.0877C505.779 68.0877 519.453 68.0877 533.848 68.0877C526.694 55.0057 519.797 42.3923 512.427 28.9141C507.775 37.454 503.689 44.9554 499.222 53.3067Z" fill="#5C4977"></path><path d="M337.825 27.9508C332.599 27.9508 327.996 27.9508 323 27.9508C323 18.6503 323 9.6937 323 0.360596C368.207 0.360596 413.473 0.360596 459 0.360596C459 9.46712 459 18.2803 459 27.7454C441.393 27.7454 423.875 27.7454 405.811 27.7454C405.811 56.5953 405.811 84.8036 405.811 113.361C395.92 113.361 386.582 113.361 376.638 113.361C376.638 85.1186 376.638 56.9379 376.638 27.9509C363.518 27.9509 350.984 27.9509 337.825 27.9508Z" fill="#5C4977"></path></svg> 